<?xml version="1.0" encoding="UTF-8" standalone="no"?>
<!DOCTYPE svg PUBLIC "-//W3C//DTD SVG 1.1//EN" "http://www.w3.org/Graphics/SVG/1.1/DTD/svg11.dtd">
<svg width="100%" height="100%" viewBox="0 0 200 178" version="1.1" xmlns="http://www.w3.org/2000/svg" xmlns:xlink="http://www.w3.org/1999/xlink" xml:space="preserve" xmlns:serif="http://www.serif.com/" style="fill-rule:evenodd;clip-rule:evenodd;stroke-linejoin:round;stroke-miterlimit:2;">
    <g transform="matrix(1,0,0,1,0,-11.085069)">
        <g transform="matrix(0.347222,0,0,0.347222,0,11.111111)">
            <path d="M566.6,54.6C579.1,42.1 579.1,21.8 566.6,9.3C554.1,-3.2 533.8,-3.2 521.3,9.3L329.3,201.3L294.6,166.6C290.4,162.4 284.6,160 278.6,160C266.1,160 256,170.1 256,182.6L256,211.7L364.3,320L393.4,320C405.9,320 416,309.9 416,297.4C416,291.4 413.6,285.6 409.4,281.4L374.7,246.7L566.7,54.7L566.6,54.6ZM341.1,353.4L222.6,234.9C179.9,231.2 137.4,246.6 106.8,277.2L98.8,285.2C76.5,307.5 64,337.7 64,369.2C64,376 71.1,380.4 77.2,377.4L128.3,351.9C133.3,349.4 137.8,356 133.7,359.8L7.3,473.4C2.7,477.6 0,483.6 0,489.9C0,502.1 9.9,512 22.1,512L195.4,512C234.2,512 271.3,496.6 298.8,469.2C329.4,438.6 344.7,396.1 341.1,353.4Z" style="fill:rgb(94,245,0);fill-rule:nonzero;"/>
        </g>
    </g>
</svg>
