<?xml version="1.0" encoding="UTF-8" standalone="no"?>
<!DOCTYPE svg PUBLIC "-//W3C//DTD SVG 1.1//EN" "http://www.w3.org/Graphics/SVG/1.1/DTD/svg11.dtd">
<svg width="100%" height="100%" viewBox="0 0 241 79" version="1.1" xmlns="http://www.w3.org/2000/svg" xmlns:xlink="http://www.w3.org/1999/xlink" xml:space="preserve" xmlns:serif="http://www.serif.com/" style="fill-rule:evenodd;clip-rule:evenodd;stroke-linejoin:round;stroke-miterlimit:2;">
    <g transform="matrix(1,0,0,1,0,-28.320946)">
        <g transform="matrix(1.096278,0,0,1.096278,-7.926091,-6.496846)">
            <path d="M175.02,100.53L176.06,100.53L176.06,101.11C176.06,101.91 176.49,102.3 177.87,102.3L181.31,102.3C182.92,102.3 183.39,101.96 183.39,100.78C183.39,99.75 182.98,99.49 181.6,99.49L179.49,99.49C176.11,99.49 175,99.29 175,97.11C175,95.24 176.11,94.82 178.4,94.82L180.79,94.82C183.54,94.82 184.23,95.52 184.23,96.98L184.23,97.26L183.19,97.26C183.17,95.96 183.03,95.72 180.12,95.72L178.94,95.72C176.8,95.72 176.04,95.83 176.04,97.18C176.04,98.15 176.35,98.48 178.08,98.48L181.36,98.48C183.52,98.48 184.43,99.1 184.43,100.49L184.43,101.02C184.43,103.03 182.78,103.18 181.14,103.18L178.06,103.18C176.44,103.18 175.02,102.9 175.02,101.11L175.02,100.51L175.02,100.53Z" style="fill:rgb(94,245,0);fill-rule:nonzero;"/>
        </g>
        <g transform="matrix(1.096278,0,0,1.096278,-7.926091,-6.496846)">
            <rect x="188.93" y="101.7" width="1.27" height="1.4" style="fill:rgb(94,245,0);fill-rule:nonzero;"/>
        </g>
        <g transform="matrix(1.096278,0,0,1.096278,-7.926091,-6.496846)">
            <path d="M194.82,94.91L201.38,94.91C203.74,94.91 204.12,95.69 204.12,97.23L204.12,97.9C204.12,99.05 203.46,99.37 202.61,99.45L202.61,99.47C203.74,99.67 204.01,100.26 204.01,101.01L204.01,103.1L202.97,103.1L202.97,101.3C202.97,100.02 202.35,99.86 201.34,99.86L195.93,99.86L195.93,103.1L194.82,103.1L194.82,94.91ZM201.25,98.97C202.48,98.97 203,98.64 203,97.78L203,97.03C203,96.11 202.6,95.82 200.97,95.82L195.92,95.82L195.92,98.97L201.25,98.97Z" style="fill:rgb(94,245,0);fill-rule:nonzero;"/>
        </g>
        <g transform="matrix(1.096278,0,0,1.096278,-7.926091,-6.496846)">
            <rect x="208.59" y="101.7" width="1.27" height="1.4" style="fill:rgb(94,245,0);fill-rule:nonzero;"/>
        </g>
        <g transform="matrix(1.096278,0,0,1.096278,-7.926091,-6.496846)">
            <path d="M214.56,94.91L215.67,94.91L215.67,102.2L222.03,102.2L222.03,103.11L214.56,103.11L214.56,94.91Z" style="fill:rgb(94,245,0);fill-rule:nonzero;"/>
        </g>
        <g transform="matrix(1.096278,0,0,1.096278,-7.926091,-6.496846)">
            <rect x="225.74" y="101.7" width="1.27" height="1.4" style="fill:rgb(94,245,0);fill-rule:nonzero;"/>
        </g>
        <g transform="matrix(1.096278,0,0,1.096278,-7.926091,-6.496846)">
            <g>
                <path d="M91.52,79.51L113.31,88.31L102.95,60.91L91.52,79.51Z" style="fill:rgb(94,245,0);fill-opacity:0.4;fill-rule:nonzero;"/>
                <path d="M88.95,79.31L90.02,33.61L79.95,67.88L88.95,79.31Z" style="fill:rgb(94,245,0);fill-opacity:0.4;fill-rule:nonzero;"/>
                <path d="M91.52,79.51L102.95,60.91L113.31,88.31L92.71,33.82L92.59,33.81L91.52,79.51Z" style="fill:rgb(94,245,0);fill-rule:nonzero;"/>
                <path d="M79.95,67.88L90.02,33.61L69.88,102.16L88.95,79.31L79.95,67.88Z" style="fill:rgb(94,245,0);fill-rule:nonzero;"/>
            </g>
            <g>
                <path d="M29.75,33.76L20.94,55.55L48.35,45.19L29.75,33.76Z" style="fill:rgb(94,245,0);fill-opacity:0.4;fill-rule:nonzero;"/>
                <path d="M29.75,33.76L48.35,45.19L20.94,55.55L75.44,34.95L75.44,34.83L29.75,33.76Z" style="fill:rgb(94,245,0);fill-rule:nonzero;"/>
            </g>
            <g>
                <path d="M32.47,55.44L25.8,71.95L46.56,64.11L32.47,55.44Z" style="fill:rgb(94,245,0);fill-opacity:0.4;fill-rule:nonzero;"/>
                <path d="M32.47,55.44L46.56,64.11L25.8,71.95L67.08,56.35L67.09,56.25L32.47,55.44Z" style="fill:rgb(94,245,0);fill-rule:nonzero;"/>
            </g>
            <g>
                <path d="M7.23,75.89L19.18,31.76L19.11,67.48L7.23,75.89Z" style="fill:rgb(94,245,0);fill-opacity:0.4;fill-rule:nonzero;"/>
                <path d="M19.11,67.48L19.18,31.76L19.04,103.2L7.23,75.89L19.11,67.48Z" style="fill:rgb(94,245,0);fill-rule:nonzero;"/>
            </g>
            <g>
                <path d="M136.02,79.51L114.23,88.31L124.59,60.91L136.02,79.51Z" style="fill:rgb(94,245,0);fill-opacity:0.4;fill-rule:nonzero;"/>
                <path d="M138.59,79.31L137.52,33.61L147.59,67.88L138.59,79.31Z" style="fill:rgb(94,245,0);fill-opacity:0.4;fill-rule:nonzero;"/>
                <path d="M136.02,79.51L124.59,60.91L114.23,88.31L134.83,33.82L134.95,33.81L136.02,79.51Z" style="fill:rgb(94,245,0);fill-rule:nonzero;"/>
                <path d="M147.59,67.88L137.52,33.61L157.66,102.16L138.59,79.31L147.59,67.88Z" style="fill:rgb(94,245,0);fill-rule:nonzero;"/>
            </g>
        </g>
        <g transform="matrix(1.096278,0,0,1.096278,-7.926091,-6.496846)">
            <path d="M29.46,103.11L23.34,103.11L26.4,97.83L29.46,103.11Z" style="fill:rgb(94,245,0);fill-rule:nonzero;"/>
        </g>
        <g transform="matrix(1.096278,0,0,1.096278,-7.926091,-6.496846)">
            <path d="M168.12,103.11L162,103.11L165.06,97.83L168.12,103.11Z" style="fill:rgb(94,245,0);fill-rule:nonzero;"/>
        </g>
    </g>
</svg>
